<?xml version="1.0" standalone="no"?><!DOCTYPE svg PUBLIC "-//W3C//DTD SVG 1.1//EN" "http://www.w3.org/Graphics/SVG/1.1/DTD/svg11.dtd"><svg xmlns="http://www.w3.org/2000/svg" width="1200" height="900" viewBox="0 0 1200 900"><g class="sankey" transform="translate(100,0)"><g class="groups"/><g class="links"><g class="link" style="opacity: 0.8;"><path d="M400.6,233.69720034779633 A68.78081574534748 68.78081574534748 0.661756780713455 0 1 442.8660690832913,248.2158744210545 L558.3629384132112,338.17912518071256 A66.78081574534748 66.78081574534748 0.661756780713455 0 0 599.4000000000001,352.2756270562169 L599.4000000000001,354.2756270562169 A68.78081574534748 68.78081574534748 0.661756780713455 0 1 557.1339309167088,339.7569529829587 L441.6370615867889,249.79370222330064 A66.78081574534748 66.78081574534748 0.661756780713455 0 0 400.6,235.69720034779633 Z" style="fill: rgb(218, 165, 32);"/><title>GWR1803-5-22.08 → 1803033GW
10.0µ</title></g><g class="link" style="opacity: 0.8;"><path d="M200.8,482.593557014026 A60.15246385333526 60.15246385333526 1.1126304422870068 0 0 254.7486540518563,449.04676236144445 L343.8576154641059,268.3593872055708 A62.15246385333526 62.15246385333526 1.1126304422870068 0 1 399.6,233.69720034779633 L399.6,235.69720034779633 A60.15246385333526 60.15246385333526 1.1126304422870068 0 0 345.6513459481437,269.2439950003778 L256.54238453589414,449.9313701562515 A62.15246385333526 62.15246385333526 1.1126304422870068 0 1 200.8,484.593557014026 Z" style="fill: rgb(218, 165, 32);"/><title>1803033REC → GWR1803-5-22.08
10.0µ</title></g><g class="link" style="opacity: 0.8;"><path d="M600.4000000000001,465.78656852774435 A133.91512884277748 133.91512884277748 0.27963804971902984 0 0 637.3616169092063,460.584689229972 L762.186367538427,424.73970334193217 A135.91512884277748 135.91512884277748 0.27963804971902984 0 1 799.7,419.46013484888033 L799.7,421.46013484888033 A133.91512884277748 133.91512884277748 0.27963804971902984 0 0 762.7383830907938,426.66201414665267 L637.9136324615731,462.5070000346925 A135.91512884277748 135.91512884277748 0.27963804971902984 0 1 600.4000000000001,467.78656852774435 ZM799.7,419.46013484888033 A135.91512884277762 135.91512884277762 0.3150297730227791 0 1 841.8125930824965,426.14890511022566 L929.638597606966,454.76985234731586 A223.85854807129604 223.85854807129604 0.3150297730227791 0 0 999,465.7865685277443 L999,467.7865685277443 A225.85854807129604 225.85854807129604 0.3150297730227791 0 1 929.0189080486209,456.6714266559555 L841.1929035241515,428.0504794188653 A133.91512884277762 133.91512884277762 0.3150297730227791 0 0 799.7,421.46013484888033 Z" style="fill: rgb(218, 165, 32);"/><title>1803033GW → 1803033E
10.0µ</title></g><g class="link" style="opacity: 0.8;"><path d="M200.8,482.76244390833887 A60.32135074764817 60.32135074764817 0.991534470565925 0 0 251.2809443651112,455.4613840744205 L348.83639826432244,306.32001358602236 A60.65910739237381 60.65910739237381 0.991534470565925 0 1 399.6,278.8660872421092 L399.6,280.8660872421092 A58.65910739237381 58.65910739237381 0.991534470565925 0 0 350.51013214923813,307.4148263017345 L252.9546782500269,456.5561967901326 A62.32135074764817 62.32135074764817 0.991534470565925 0 1 200.8,484.76244390833887 Z" style="fill: rgb(70, 130, 180);"/><title>1803033REC → 1803033NPD
88.0</title></g><g class="link" style="opacity: 0.8;"><path d="M400.6,278.8660872421092 A62.591688227667376 62.591688227667376 1.1292639930442974 0 1 457.18901512703275,314.7107606430341 L545.1191807126833,500.745781847488 A60.591688227667376 60.591688227667376 1.1292639930442974 0 0 599.9000000000001,535.4451059403532 L599.9000000000001,537.4451059403532 A62.591688227667376 62.591688227667376 1.1292639930442974 0 1 543.3109848729674,501.60043253942825 L455.3808192873168,315.5654113349744 A60.591688227667376 60.591688227667376 1.1292639930442974 0 0 400.6,280.8660872421092 ZM599.9000000000001,535.4451059403532 A258.4068101078102 258.4068101078102 0.1410275195950741 0 0 636.2217922772095,532.8796664430545 L763.0970867085105,514.8671844177799 A260.4068101078102 260.4068101078102 0.1410275195950741 0 1 799.7,512.2818891009211 L799.7,514.2818891009211 A258.4068101078102 258.4068101078102 0.1410275195950741 0 0 763.3782077227906,516.8473285982199 L636.5029132914897,534.8598106234945 A260.4068101078102 260.4068101078102 0.1410275195950741 0 1 599.9000000000001,537.4451059403532 ZM799.7,512.2818891009211 A133.91512884277762 133.91512884277762 0.3048520704481761 0 0 839.8949030959295,506.10724521920264 L937.449242712786,475.4107340177437 A205.0652435413509 205.0652435413509 0.3048520704481761 0 1 999,465.9554554220572 L999,467.9554554220572 A203.0652435413509 203.0652435413509 0.3048520704481761 0 0 938.0495468523299,477.3185167464753 L840.4952072354733,508.01502794793424 A135.91512884277762 135.91512884277762 0.3048520704481761 0 1 799.7,514.2818891009211 Z" style="fill: rgb(70, 130, 180);"/><title>1803033NPD → 1803033E
88.0</title></g><g class="link" style="opacity: 0.8;"><path d="M1,482.76244388914716 A0 0 0 0 0 1,482.76244388914716 L199.8,482.76244386995546 A0 0 0 0 1 199.8,482.76244386995546 L199.8,484.76244386995546 A0 0 0 0 0 199.8,484.76244386995546 L1,484.76244388914716 A0 0 0 0 1 1,484.76244388914716 Z" style="fill: rgb(70, 130, 180);"/><title>WWT1803033 → 1803033REC
88.0</title></g><g class="link" style="opacity: 0.8;"><path d="M200.8,89.25713026737205 A0 0 0 0 0 200.8,89.25713026737205 L399.6,89.25713026737205 A0 0 0 0 0 399.6,89.25713026737205 L399.6,91.25713026737205 A0 0 0 0 0 399.6,91.25713026737205 L200.8,91.25713026737205 A0 0 0 0 0 200.8,91.25713026737205 Z" style="fill: rgb(128, 128, 128);"/><title>SW_CVPFKC → SW_CVPFKC to other
134</title></g><g class="link" style="opacity: 0.8;"><path d="M200.8,90.51426053474408 A257.90502545248586 257.90502545248586 0.3062876673431123 0 1 278.56382334303396,102.51729345215348 L366.511548432321,130.3298023576658 A111.39666343640307 111.39666343640307 0.3062876673431123 0 0 400.1,135.5142605347441 L400.1,189.6972003286046 A165.5796032302636 165.5796032302636 0.3062876673431123 0 1 350.17424538464434,181.9910401848171 L262.2265202953573,154.1785312793048 A203.72208565862533 203.72208565862533 0.3062876673431123 0 0 200.8,144.6972003286046 ZM400.1,135.5142605347441 A104.21140879464649 104.21140879464649 0.5394546421124349 0 1 453.6300822966032,150.31343296163263 L574.2019685295464,222.498440907967 A50.02846900078596 50.02846900078596 0.5394546421124349 0 0 599.9000000000001,229.6030367248687 L599.9000000000001,283.7859765187292 A104.21140879464649 104.21140879464649 0.5394546421124349 0 1 546.3699177033969,268.98680409184067 L425.7980314704537,196.8017961455063 A50.02846900078596 50.02846900078596 0.5394546421124349 0 0 400.1,189.6972003286046 ZM599.9000000000001,229.6030367248687 A68.64275354144613 68.64275354144613 0.45079712191741805 0 0 629.8064919090388,222.74563221898535 L723.1991270299643,177.53999479513396 A174.44069361542904 174.44069361542904 0.45079712191741805 0 1 799.2,160.11338620657273 L799.2,214.29632600043323 A120.25775382156853 120.25775382156853 0.45079712191741805 0 0 746.8057215640051,226.3100640918912 L653.4130864430796,271.5157015157426 A122.82569333530665 122.82569333530665 0.45079712191741805 0 1 599.9000000000001,283.7859765187292 Z" style="fill: rgb(70, 130, 180);"/><title>SW_CVPFKC → 1803033PD
14.1k</title></g><g class="link" style="opacity: 0.8;"><path d="M600.4000000000001,90 A0 0 0 0 0 600.4000000000001,90 L799.2,90 A0 0 0 0 0 799.2,90 L799.2,160.11338620657273 A0 0 0 0 0 799.2,160.11338620657273 L600.4000000000001,160.11338620657273 A0 0 0 0 0 600.4000000000001,160.11338620657273 Z" style="fill: rgb(70, 130, 180);"/><title>FRES_ID → 1803033PD
18.3k</title></g><g class="link" style="opacity: 0.8;"><path d="M200.8,732.4422722549875 A0 0 0 0 0 200.8,732.4422722549875 L399.6,732.4422722549875 A0 0 0 0 0 399.6,732.4422722549875 L399.6,810 A0 0 0 0 0 399.6,810 L200.8,810 A0 0 0 0 0 200.8,810 Z" style="fill: rgb(128, 128, 128);"/><title>GW1803-5-22.08 → GW1803-5-22.08 to other
20.2k</title></g><g class="link" style="opacity: 0.8;"><path d="M600.4000000000001,353.2756270370252 A6.746812350041068 6.746812350041068 0.751671229983994 0 0 605.0071325178017,351.4576894926656 L717.08071471326,246.69993741423613 A120.25775382156853 120.25775382156853 0.751671229983994 0 1 799.2,214.29632600043325 L799.2,327.8072674719607 A6.746812350041068 6.746812350041068 0.751671229983994 0 0 794.5928674821985,329.62520501632025 L682.5192852867401,434.3829570947497 A120.25775382156853 120.25775382156853 0.751671229983994 0 1 600.4000000000001,466.7865685085526 Z" style="fill: rgb(70, 130, 180);"/><title>1803033GW → 1803033PD
29.6k</title></g><g class="link" style="opacity: 0.8;"><path d="M200.8,618.9313307834601 A7.500093652532364 7.500093652532364 1.2118982519683261 0 0 207.8222209497367,614.0655905107603 L286.79925132060464,403.5417627418531 A121.01103512405982 121.01103512405982 1.2118982519683261 0 1 400.1,325.03497411723043 L400.1,438.54591558875785 A7.500093652532364 7.500093652532364 1.2118982519683261 0 0 393.0777790502633,443.41165586145775 L314.10074867939545,653.9354836303648 A121.01103512405982 121.01103512405982 1.2118982519683261 0 1 200.8,732.4422722549876 ZM400.1,325.03497411723043 A270.9093779022147 270.9093779022147 0.17225848871891913 0 1 446.5359934075298,329.04439032664004 L572.4206727687033,350.94615495728675 A157.39843643068724 157.39843643068724 0.17225848871891913 0 0 599.4000000000001,353.2756270754086 L599.4000000000001,466.786568546936 A270.9093779022147 270.9093779022147 0.17225848871891913 0 1 552.9640065924702,462.7771523375264 L427.07932723129676,440.8753877068797 A157.39843643068724 157.39843643068724 0.17225848871891913 0 0 400.1,438.54591558875785 Z" style="fill: rgb(70, 130, 180);"/><title>GW1803-5-22.08 → 1803033GW
29.6k</title></g><g class="link" style="opacity: 0.8;"><path d="M1,618.9313307834601 A0 0 0 0 0 1,618.9313307834601 L199.8,618.9313307834601 A0 0 0 0 0 199.8,618.9313307834601 L199.8,809.9999999999999 A0 0 0 0 0 199.8,809.9999999999999 L1,809.9999999999999 A0 0 0 0 0 1,809.9999999999999 Z" style="fill: rgb(70, 130, 180);"/><title>GW1803-5-22 → GW1803-5-22.08
49.8k</title></g><g class="link" style="opacity: 0.8;"><path d="M200.8,144.6972003286046 A203.89635666622968 203.89635666622968 1.6057654210475603 0 1 404.5717033086631,355.7221748446383 L400.1,483.54591558875785 A0 0 1.6057654210475603 0 0 400.1,483.5459155887579 L400.1,687.4422722549875 A203.89635666622968 203.89635666622968 1.6057654210475603 0 1 196.32829669133696,476.4172977389539 L200.8,348.59355699483433 A0 0 1.6057654210475603 0 0 200.8,348.5935569948343 ZM400.1,483.5459155887579 A203.89635666622968 203.89635666622968 0.8515355167234953 0 1 553.4897884313966,553.1094874750473 L599.9000000000001,606.1036433337703 A0 0 0.8515355167234953 0 0 599.9000000000001,606.1036433337704 L599.9000000000001,810 A203.89635666622968 203.89635666622968 0.8515355167234953 0 1 446.51021156860355,740.4364281137106 L400.1,687.4422722549876 A0 0 0.8515355167234953 0 0 400.1,687.4422722549875 ZM599.9000000000001,606.1036433337704 A0 0 0 0 0 599.9000000000001,606.1036433337704 L799.7,606.1036433337704 A0 0 0 0 0 799.7,606.1036433337704 L799.7,810 A0 0 0 0 0 799.7,810 L599.9000000000001,810 A0 0 0 0 0 599.9000000000001,810 ZM799.7,606.1036433337704 A0 0 1.0219645580981913 0 0 799.7,606.1036433337704 L825.0489715197446,564.6498197133816 A203.89635666622968 203.89635666622968 1.0219645580981913 0 1 999,467.1243422971785 L999,671.0206989634081 A0 0 1.0219645580981913 0 0 999,671.0206989634081 L973.6510284802555,712.4745225837969 A203.89635666622968 203.89635666622968 1.0219645580981913 0 1 799.7,810 Z" style="fill: rgb(70, 130, 180);"/><title>SW_CVPFKC → 1803033E
53.1k</title></g><g class="link" style="opacity: 0.8;"><path d="M800.2,89.99999999999999 A237.80726747196073 237.80726747196073 1.1094533121787244 0 1 1013.1458162777674,221.9470965280402 L999,228.97930103659186 A0 0 1.1094533121787244 0 0 999,228.9793010365919 L999,466.7865685085526 A237.80726747196073 237.80726747196073 1.1094533121787244 0 1 786.0541837222327,334.83947198051237 L800.2,327.8072674719607 A0 0 1.1094533121787244 0 0 800.2,327.8072674719607 Z" style="fill: rgb(70, 130, 180);"/><title>1803033PD → 1803033E
62.0k</title></g><g class="link" style="opacity: 0.8;"><path d="M1,90 A0 0 0 0 0 1,90 L199.8,90 A0 0 0 0 0 199.8,90 L199.8,348.5935569948343 A0 0 0 0 0 199.8,348.5935569948343 L1,348.5935569948343 A0 0 0 0 0 1,348.5935569948343 Z" style="fill: rgb(70, 130, 180);"/><title>RES_MLRTN → SW_CVPFKC
67.4k</title></g></g><g class="nodes"><g class="node" transform="translate(399.6,90)"><title>SW_CVPFKC to other</title><text dy=".35em" text-anchor="start" transform="translate(4,0.25713026737204103)" style="display: inline;">SW_CVPFKC to other</text><line x1="0" x2="0" y1="0" y2="1" style="display: inline; stroke: rgb(0, 0, 0);"/><rect x="-5" y="-5" width="10" style="fill: none; visibility: hidden; pointer-events: all;" height="6"/></g><g class="node" transform="translate(399.6,234.69720032860462)"><title>GWR1803-5-22.08</title><text dy=".35em" text-anchor="start" transform="translate(-4,-10)" style="display: inline;">GWR1803-5-22.08</text><line x1="0" x2="0" y1="-5" y2="1" style="display: inline; stroke: rgb(0, 0, 0);"/><rect x="-5" y="-5" width="10" style="fill: none; visibility: hidden; pointer-events: all;" height="6"/></g><g class="node" transform="translate(399.6,732.4422722549875)"><title>GW1803-5-22.08 to other</title><text dy=".35em" text-anchor="start" transform="translate(4,38.778863872506236)" style="display: inline;">GW1803-5-22.08 to other</text><line x1="0" x2="0" y1="0" y2="77.55772774501247" style="display: inline; stroke: rgb(0, 0, 0);"/><rect x="-5" y="-5" width="10" style="fill: none; visibility: hidden; pointer-events: all;" height="82.55772774501247"/></g><g class="node" transform="translate(599.4000000000001,353.2756270370252)"><title>1803033GW</title><text dy=".35em" text-anchor="start" transform="translate(-4,-10)" style="display: inline;">1803033GW</text><line x1="0" x2="0" y1="-5" y2="113.51094150991082" style="display: inline; stroke: rgb(0, 0, 0);"/><rect x="-5" y="-5" width="10" style="fill: none; visibility: hidden; pointer-events: all;" height="118.51094150991082"/></g><g class="node" transform="translate(199.8,90)"><title>SW_CVPFKC</title><text dy=".35em" text-anchor="start" transform="translate(-4,-10)" style="display: inline;">SW_CVPFKC</text><line x1="0" x2="0" y1="-5" y2="258.5935569948343" style="display: inline; stroke: rgb(0, 0, 0);"/><rect x="-5" y="-5" width="10" style="fill: none; visibility: hidden; pointer-events: all;" height="263.5935569948343"/></g><g class="node" transform="translate(199.8,483.5935569948343)"><title>1803033REC</title><text dy=".35em" text-anchor="start" transform="translate(-4,-10)" style="display: inline;">1803033REC</text><line x1="0" x2="0" y1="-5" y2="1" style="display: inline; stroke: rgb(0, 0, 0);"/><rect x="-5" y="-5" width="10" style="fill: none; visibility: hidden; pointer-events: all;" height="6"/></g><g class="node" transform="translate(0,90)"><title>RES_MLRTN</title><text dy=".35em" text-anchor="end" transform="translate(-4,129.29677849741714)" style="display: inline;">RES_MLRTN</text><line x1="0" x2="0" y1="0" y2="258.5935569948343" style="display: inline; stroke: rgb(0, 0, 0);"/><rect x="-5" y="-5" width="10" style="fill: none; visibility: hidden; pointer-events: all;" height="263.5935569948343"/></g><g class="node" transform="translate(0,483.593557014026)"><title>WWT1803033</title><text dy=".35em" text-anchor="end" transform="translate(-4,0.16888687512121692)" style="display: inline;">WWT1803033</text><line x1="0" x2="0" y1="0" y2="1" style="display: inline; stroke: rgb(0, 0, 0);"/><rect x="-5" y="-5" width="10" style="fill: none; visibility: hidden; pointer-events: all;" height="6"/></g><g class="node" transform="translate(399.6,279.697200366988)"><title>1803033NPD</title><text dy=".35em" text-anchor="start" transform="translate(-4,-10)" style="display: inline;">1803033NPD</text><line x1="0" x2="0" y1="-5" y2="1" style="display: inline; stroke: rgb(0, 0, 0);"/><rect x="-5" y="-5" width="10" style="fill: none; visibility: hidden; pointer-events: all;" height="6"/></g><g class="node" transform="translate(0,618.9313307834601)"><title>GW1803-5-22</title><text dy=".35em" text-anchor="end" transform="translate(-4,95.53433460826994)" style="display: inline;">GW1803-5-22</text><line x1="0" x2="0" y1="0" y2="191.0686692165399" style="display: inline; stroke: rgb(0, 0, 0);"/><rect x="-5" y="-5" width="10" style="fill: none; visibility: hidden; pointer-events: all;" height="196.0686692165399"/></g><g class="node" transform="translate(199.8,618.9313307834601)"><title>GW1803-5-22.08</title><text dy=".35em" text-anchor="start" transform="translate(-4,-10)" style="display: inline;">GW1803-5-22.08</text><line x1="0" x2="0" y1="-5" y2="191.0686692165399" style="display: inline; stroke: rgb(0, 0, 0);"/><rect x="-5" y="-5" width="10" style="fill: none; visibility: hidden; pointer-events: all;" height="196.0686692165399"/></g><g class="node" transform="translate(599.4000000000001,90)"><title>FRES_ID</title><text dy=".35em" text-anchor="end" transform="translate(-4,35.056693103286364)" style="display: inline;">FRES_ID</text><line x1="0" x2="0" y1="0" y2="70.11338620657273" style="display: inline; stroke: rgb(0, 0, 0);"/><rect x="-5" y="-5" width="10" style="fill: none; visibility: hidden; pointer-events: all;" height="75.11338620657273"/></g><g class="node" transform="translate(799.2,90)"><title>1803033PD</title><text dy=".35em" text-anchor="start" transform="translate(-4,-10)" style="display: inline;">1803033PD</text><line x1="0" x2="0" y1="-5" y2="237.8072674719607" style="display: inline; stroke: rgb(0, 0, 0);"/><rect x="-5" y="-5" width="10" style="fill: none; visibility: hidden; pointer-events: all;" height="242.8072674719607"/></g><g class="node" transform="translate(999,228.97930103659186)"><title>1803033E</title><text dy=".35em" text-anchor="start" transform="translate(4,221.0206989634081)" style="display: inline;">1803033E</text><line x1="0" x2="0" y1="0" y2="442.0413979268162" style="display: inline; stroke: rgb(0, 0, 0);"/><rect x="-5" y="-5" width="10" style="fill: none; visibility: hidden; pointer-events: all;" height="447.0413979268162"/></g></g><g class="slice-titles"/></g></svg>